# xmcd
# Copyright (C) 1995-1998 Ti Kan
#
# Track frame offsets:
#       150
#       14047
#       23355
#       33567
#       48700
#       61002
#       74587
#       84335
#       94422
#       103902
#       111432
#       125615
#       137080
#       151957
#
# Disc length: 2229 seconds
#
# Revision: 2
# Processed by: cddbd v1.4PL0 Copyright (c) Steve Scherf et al.
# Submitted via: CD-Transfer v1.0
#
DISCID=c408b30e
DTITLE=The Sun Skippers - Boppin' Country Billy
DYEAR=2001
DGENRE=
TTITLE0=Number Nine Train
TTITLE1=One Cup Of Coffee
TTITLE2=Lonesome Train
TTITLE3=Wabash Cannonball
TTITLE4=Midnight Shift
TTITLE5=Sea Of Heartbreak
TTITLE6=Goin' Down That Road
TTITLE7=Domino
TTITLE8=Cut Across Shorty
TTITLE9=Latch On
TTITLE10=Barbeque Rag
TTITLE11=Maybe Baby
TTITLE12=Let Your Concience Be Your Guide
TTITLE13=Kiss
EXTD=
EXTT0=
EXTT1=
EXTT2=
EXTT3=
EXTT4=
EXTT5=
EXTT6=
EXTT7=
EXTT8=
EXTT9=
EXTT10=
EXTT11=
EXTT12=
EXTT13=
PLAYORDER=
